<svg width="18" height="20" viewBox="0 0 18 20" fill="none" xmlns="http://www.w3.org/2000/svg">
<path d="M17.0645 8.46918H0.907034C0.425145 8.46918 0.0566406 8.09722 0.0566406 7.61081C0.0566406 7.1244 0.425145 6.75244 0.907034 6.75244H17.0645C17.5464 6.75244 17.9149 7.1244 17.9149 7.61081C17.9149 8.09722 17.5464 8.46918 17.0645 8.46918Z" fill="#35CC8C"/>
<path d="M13.0394 12.0457C12.5575 12.0457 12.189 11.6738 12.189 11.1873C12.189 10.7009 12.5575 10.329 13.0394 10.329C13.5212 10.329 13.8898 10.7009 13.8898 11.1873C13.8898 11.6738 13.4929 12.0457 13.0394 12.0457Z" fill="#35CC8C"/>
<path d="M9.01446 12.0457C8.53257 12.0457 8.16406 11.6738 8.16406 11.1873C8.16406 10.7009 8.53257 10.329 9.01446 10.329C9.49635 10.329 9.86485 10.7009 9.86485 11.1873C9.86485 11.6738 9.468 12.0457 9.01446 12.0457Z" fill="#35CC8C"/>
<path d="M4.98907 12.0457C4.50718 12.0457 4.13867 11.6738 4.13867 11.1873C4.13867 10.7009 4.50718 10.329 4.98907 10.329C5.47096 10.329 5.83946 10.7009 5.83946 11.1873C5.83946 11.6738 5.44261 12.0457 4.98907 12.0457Z" fill="#35CC8C"/>
<path d="M13.0394 15.5937C12.5575 15.5937 12.189 15.2217 12.189 14.7353C12.189 14.2489 12.5575 13.877 13.0394 13.877C13.5212 13.877 13.8898 14.2489 13.8898 14.7353C13.8898 15.2217 13.4929 15.5937 13.0394 15.5937Z" fill="#35CC8C"/>
<path d="M9.01446 15.5937C8.53257 15.5937 8.16406 15.2217 8.16406 14.7353C8.16406 14.2489 8.53257 13.877 9.01446 13.877C9.49635 13.877 9.86485 14.2489 9.86485 14.7353C9.86485 15.2217 9.468 15.5937 9.01446 15.5937Z" fill="#35CC8C"/>
<path d="M4.98907 15.5937C4.50718 15.5937 4.13867 15.2217 4.13867 14.7353C4.13867 14.2489 4.50718 13.877 4.98907 13.877C5.47096 13.877 5.83946 14.2489 5.83946 14.7353C5.83946 15.2217 5.44261 15.5937 4.98907 15.5937Z" fill="#35CC8C"/>
<path d="M12.6709 4.72103C12.189 4.72103 11.8205 4.34907 11.8205 3.86266V0.85837C11.8205 0.37196 12.189 0 12.6709 0C13.1527 0 13.5213 0.37196 13.5213 0.85837V3.86266C13.5213 4.32046 13.1244 4.72103 12.6709 4.72103Z" fill="#35CC8C"/>
<path d="M5.32915 4.72103C4.84726 4.72103 4.47876 4.34907 4.47876 3.86266V0.85837C4.47876 0.37196 4.84726 0 5.32915 0C5.81104 0 6.17955 0.37196 6.17955 0.85837V3.86266C6.17955 4.32046 5.81104 4.72103 5.32915 4.72103Z" fill="#35CC8C"/>
<path d="M12.8126 20H5.15905C1.9559 20 0 18.0258 0 14.8212V6.52365C0 3.3763 1.98425 1.43066 5.15905 1.43066H12.8409C14.4283 1.43066 15.7606 1.91706 16.6677 2.83266C17.5465 3.71964 18 5.0072 18 6.52365V14.8785C18 18.0258 16.0157 20 12.8126 20ZM5.15905 3.1474C3.57165 3.1474 1.70079 3.74826 1.70079 6.52365V14.7926C1.70079 16.3663 2.29606 18.2547 5.15905 18.2547H12.8126C14.4 18.2547 16.2709 17.6538 16.2709 14.8498V6.52365C16.2709 5.43639 15.9874 4.60662 15.4205 4.03438C14.8535 3.43352 13.9465 3.1474 12.8126 3.1474H5.15905Z" fill="#35CC8C"/>
</svg>
