<svg width="22" height="22" viewBox="0 0 22 22" fill="none" xmlns="http://www.w3.org/2000/svg">
<path d="M14.2403 0.340172C13.9915 0.30593 13.7383 0.325313 13.4977 0.39702C13.257 0.468727 13.0345 0.591096 12.8451 0.755911C12.6556 0.920725 12.5036 1.12417 12.3993 1.35258C12.295 1.58099 12.2408 1.82907 12.2403 2.08017V8.00017C12.2429 8.46522 12.4295 8.91032 12.7593 9.23822C13.0891 9.56612 13.5352 9.75018 14.0003 9.75017H19.9203C20.1714 9.74966 20.4195 9.69543 20.6479 9.59112C20.8763 9.4868 21.0797 9.33482 21.2445 9.14538C21.4093 8.95594 21.5317 8.73342 21.6034 8.49278C21.6751 8.25213 21.6945 7.99893 21.6603 7.75017C21.3883 5.87991 20.5188 4.14775 19.1815 2.81227C17.8442 1.47678 16.1109 0.609602 14.2403 0.340172ZM20.1203 8.16017C20.068 8.2152 19.9961 8.24751 19.9203 8.25017H14.0003C13.934 8.25017 13.8704 8.22383 13.8235 8.17695C13.7766 8.13006 13.7503 8.06648 13.7503 8.00017V2.08017C13.7529 2.00429 13.7852 1.93249 13.8403 1.88017C13.8853 1.84272 13.9417 1.82157 14.0003 1.82017C15.5605 2.04254 17.0064 2.76521 18.1208 3.87961C19.2352 4.994 19.9579 6.43994 20.1803 8.00017C20.1806 8.05906 20.1592 8.11601 20.1203 8.16017Z" fill="#35CC8C"/>
<path d="M7.65027 21.5702C8.26309 21.6895 8.88594 21.7498 9.51027 21.7502C11.4432 21.7485 13.3262 21.136 14.8903 20.0002C15.916 19.2627 16.7803 18.3235 17.4303 17.2402C18.0803 16.1569 18.5022 14.9523 18.6703 13.7002C18.7062 13.4512 18.688 13.1973 18.617 12.956C18.5459 12.7146 18.4236 12.4914 18.2585 12.3015C18.0933 12.1117 17.8892 11.9597 17.66 11.856C17.4308 11.7522 17.1819 11.6991 16.9303 11.7002H10.5003C10.434 11.7002 10.3704 11.6739 10.3235 11.627C10.2766 11.5801 10.2503 11.5165 10.2503 11.4502V5.07021C10.2514 4.8186 10.1983 4.5697 10.0945 4.34049C9.99073 4.11127 9.83875 3.90713 9.64893 3.74198C9.4591 3.57683 9.23589 3.45456 8.99452 3.3835C8.75315 3.31244 8.4993 3.29426 8.25027 3.33021C6.07771 3.61373 4.07633 4.65922 2.60258 6.28047C1.12883 7.90172 0.278412 9.99346 0.202782 12.1831C0.127152 14.3728 0.831225 16.5182 2.1896 18.2373C3.54798 19.9564 5.47245 21.1375 7.62027 21.5702H7.65027ZM3.20027 8.00021C3.81621 7.13958 4.60127 6.41367 5.50742 5.86688C6.41356 5.3201 7.42174 4.96395 8.47027 4.82021C8.52916 4.8199 8.5861 4.84126 8.63027 4.88021C8.65767 4.90387 8.67983 4.93299 8.69533 4.96571C8.71083 4.99842 8.71932 5.03402 8.72027 5.07021V11.5002C8.72289 11.9635 8.90811 12.4071 9.23573 12.7347C9.56335 13.0624 10.0069 13.2476 10.4703 13.2502H16.9003C16.9365 13.2512 16.9721 13.2596 17.0048 13.2751C17.0375 13.2906 17.0666 13.3128 17.0903 13.3402C17.1145 13.3649 17.1326 13.395 17.143 13.428C17.1534 13.461 17.1559 13.4961 17.1503 13.5302C17.0036 14.7042 16.5901 15.8289 15.9415 16.8184C15.2929 17.8078 14.4263 18.6356 13.4083 19.2383C12.3903 19.841 11.2477 20.2026 10.0683 20.2955C8.88889 20.3884 7.70386 20.2099 6.60405 19.774C5.50424 19.338 4.51885 18.656 3.72338 17.7803C2.92792 16.9045 2.34351 15.8583 2.01494 14.7218C1.68637 13.5852 1.62236 12.3886 1.82782 11.2235C2.03328 10.0584 2.50276 8.95579 3.20027 8.00021Z" fill="#35CC8C"/>
</svg>
