<svg width="10" height="10" viewBox="0 0 10 10" fill="none" xmlns="http://www.w3.org/2000/svg">
<path d="M4.5 5.50029H1.16667C1.02501 5.50029 0.906255 5.45236 0.810422 5.35649C0.714588 5.26061 0.666672 5.14181 0.666672 5.00009C0.666672 4.85836 0.714588 4.73963 0.810422 4.64391C0.906255 4.54819 1.02501 4.50033 1.16667 4.50033H4.5V1.16699C4.5 1.02533 4.54794 0.906576 4.6438 0.810742C4.73968 0.714909 4.85848 0.666992 5.0002 0.666992C5.14194 0.666992 5.26067 0.714909 5.35639 0.810742C5.45211 0.906576 5.49997 1.02533 5.49997 1.16699V4.50033H8.8333C8.97497 4.50033 9.09372 4.54826 9.18956 4.64413C9.28539 4.74 9.33331 4.8588 9.33331 5.00053C9.33331 5.14226 9.28539 5.26099 9.18956 5.35671C9.09372 5.45243 8.97497 5.50029 8.8333 5.50029H5.49997V8.83362C5.49997 8.97529 5.45204 9.09404 5.35617 9.18988C5.26029 9.28571 5.14149 9.33363 4.99977 9.33363C4.85804 9.33363 4.73931 9.28571 4.64359 9.18988C4.54787 9.09404 4.5 8.97529 4.5 8.83362V5.50029Z" fill="#E6E6E6"/>
</svg>
